# xmcd
#
# Track frame offsets: 
#        150
#        14084
#        25267
#        38345
#        52225
#        67552
#        81951
#        95429
#        109880
#        126165
#        138923
#        151226
#
# Disc length: 2224 seconds
#
# Revision: 0
# Processed by: cddbd v1.5.2PL0 Copyright (c) Steve Scherf et al.
# Submitted via: ExactAudioCopy v1.0b2
#
DISCID=9508ae0c
DTITLE=Varios - Que Tangos Hermano
DYEAR=1900
DGENRE=Tango
TTITLE0=Alfredo de Ángelis - SANGRE MALEVA
TTITLE1=Enrique Rodríguez - UN TROPEZÓN
TTITLE2=Miguel Caló - CUANDO TALLAN LOS RECUERDOS
TTITLE3=Carlos Gardel - MANO A MANO
TTITLE4=Argentino Ledesma - HÁBLAME DE AMOR
TTITLE5=Pepe Aguirre - JORNALERO
TTITLE6=Alfredo de Ángelis - LÁGRIMAS DE SANGRE
TTITLE7=Francisco Canaro - QUE LE IMPORTA AL MUNDO
TTITLE8=Ignacio Corcini - EL ADIÓS
TTITLE9=Pedro Laurenz - QUE NUNCA ME FALTE
TTITLE10=Rodofo Biagi - SON COSAS DE BANDONEÓN
TTITLE11=Héctor Palacios - REMEMBRANZAS
EXTD=
EXTT0=
EXTT1=
EXTT2=
EXTT3=
EXTT4=
EXTT5=
EXTT6=
EXTT7=
EXTT8=
EXTT9=
EXTT10=
EXTT11=
PLAYORDER=
